<svg xmlns="http://www.w3.org/2000/svg" shape-rendering="geometricPrecision" text-rendering="geometricPrecision" image-rendering="optimizeQuality" fill-rule="evenodd" clip-rule="evenodd" viewBox="0 0 402 512.14"><path fill="#fff" fill-rule="nonzero" d="M402 248.77c0 34.03-13.8 64.84-36.1 87.15-22.31 22.3-53.12 36.1-87.15 36.1-29.52 0-56.63-10.39-77.85-27.7-21.19 17.22-48.21 27.54-77.65 27.54-34.02 0-64.84-13.8-87.15-36.1C13.8 313.45 0 282.64 0 248.61c0-34.04 13.8-64.85 36.1-87.16 10-9.99 21.7-18.28 34.64-24.38-.51-4.53-.77-9.14-.77-13.82 0-34.03 13.8-64.84 36.11-87.15C128.38 13.8 159.2 0 193.23 0c34.03 0 64.85 13.8 87.15 36.1 22.31 22.31 36.1 53.12 36.1 87.15 0 2.71-.09 5.4-.26 8.07 18.97 6.04 35.94 16.55 49.68 30.3 22.3 22.3 36.1 53.11 36.1 87.15z"/><path fill="#5EAC24" d="M186.86 330.91c-17.58 13.61-39.65 21.71-63.61 21.71-57.45 0-104.02-46.57-104.02-104.01 0-39.86 22.42-74.47 55.33-91.94 5.79 20.6 16.8 39.02 31.52 53.74 13.74 13.74 30.71 24.25 49.67 30.29-.17 2.67-.26 5.36-.26 8.07 0 31.54 11.87 60.34 31.37 82.14z"/><path fill="#ED1C24" d="M382.77 248.77c0 57.45-46.57 104.01-104.02 104.01-57.45 0-104.02-46.56-104.02-104.01 0-1.22.03-2.43.07-3.63 6.01.9 12.17 1.37 18.43 1.37 34.03 0 64.85-13.8 87.15-36.1 16.12-16.13 27.81-36.71 33.04-59.74 40.4 14.28 69.35 52.81 69.35 98.1z"/><path fill="#2488FF" d="M297.25 123.25c0 57.45-46.57 104.02-104.02 104.02-57.45 0-104.02-46.57-104.02-104.02 0-57.45 46.57-104.01 104.02-104.01 57.45 0 104.02 46.56 104.02 104.01z"/><path fill-rule="nonzero" d="M150.9 509.96h-31.85l-11.87-26.93h-6.23v26.93H71.99v-90.49h45.61c20.75 0 31.13 10.57 31.13 31.71 0 14.48-4.49 24.03-13.47 28.67l15.64 30.11zm-49.95-67.32v18.1h6.66c3.47 0 6.01-.37 7.6-1.09 1.59-.72 2.39-2.39 2.39-4.99v-5.94c0-2.61-.8-4.27-2.39-4.99-1.59-.73-4.13-1.09-7.6-1.09h-6.66zm109.68 40.68v-3.91h-7.39v-22.15h34.9v48.36c-11.49 4.34-23.36 6.52-35.62 6.52-16.51 0-27.85-4.01-34.03-12.02-3.18-4.15-5.4-9.03-6.66-14.62-1.25-5.6-1.88-12.53-1.88-20.78 0-8.26.65-15.16 1.96-20.71 1.3-5.55 3.64-10.4 7.02-14.55 6.37-8.11 18.68-12.16 36.92-12.16 3.76 0 8.66.39 14.7 1.16 6.03.77 10.44 1.64 13.24 2.61l-4.34 22.14c-7.82-1.35-14.89-2.02-21.21-2.02s-10.76.48-13.32 1.45c-2.56.96-3.84 2.89-3.84 5.79v40.97h9.56c3.47 0 6.01-.36 7.6-1.08 1.59-.72 2.39-2.39 2.39-5zm43.8 26.64v-90.49h46.91c8.69 0 14.89 1.69 18.6 5.07 3.72 3.38 5.58 8.3 5.58 14.77 0 6.46-1.19 11.46-3.55 14.98-2.36 3.53-5.53 5.82-9.48 6.88v.87c11.68 2.02 17.52 9.99 17.52 23.89 0 7.24-1.93 13.05-5.79 17.45-3.87 4.39-9.8 6.58-17.81 6.58h-51.98zm40.25-36.05h-11.3v14.77h11.15c4.06 0 6.09-2.46 6.09-7.38 0-4.93-1.98-7.39-5.94-7.39zm-2.17-34.6h-9.13v13.46h8.98c3.67 0 5.51-2.24 5.51-6.73s-1.79-6.73-5.36-6.73z"/></svg>